{
  "source": "C:\\Users\\Peter\\Desktop\\stuff\\MIUN\\quantitative_research\\video_compression\\videos\\BVI-HD\\RockWave_1920x1080_30fps.mp4",
  "output": "C:\\Users\\Peter\\Desktop\\stuff\\MIUN\\quantitative_research\\video_compression\\compressed_videos\\BVI-HD\\vp9\\12\\RockWave_1920x1080_30fps_vp9.webm",
  "codec": "vp9",
  "ok": "Input #0, mov,mp4,m4a,3gp,3g2,mj2, from 'C:\\Users\\Peter\\Desktop\\stuff\\MIUN\\quantitative_research\\video_compression\\videos\\BVI-HD\\RockWave_1920x1080_30fps.mp4':\n  Metadata:\n    major_brand     : isom\n    minor_version   : 512\n    compatible_brands: isomiso2avc1mp41\n    encoder         : Lavf54.28.101\n  Duration: 00:00:05.00, start: 0.000000, bitrate: 303557 kb/s\n  Stream #0:0[0x1](und): Video: h264 (High 4:4:4 Predictive) (avc1 / 0x31637661), yuv420p(progressive), 1920x1080, 303553 kb/s, 30 fps, 30 tbr, 30 tbn (default)\n    Metadata:\n      handler_name    : VideoHandler\n      vendor_id       : [0][0][0][0]\n[out#0/webm @ 0000015684689380] Codec AVOption b:a (set bitrate (in bits/s)) has not been used for any stream. The most likely reason is either wrong type (e.g. a video option with no video streams) or that it is a private option of some decoder which was not actually used for any stream.\nStream mapping:\n  Stream #0:0 -> #0:0 (h264 (native) -> vp9 (libvpx-vp9))\nPress [q] to stop, [?] for help\n[libvpx-vp9 @ 0000015685180340] v1.15.2-100-g40561f514\nOutput #0, webm, to 'C:\\Users\\Peter\\Desktop\\stuff\\MIUN\\quantitative_research\\video_compression\\compressed_videos\\BVI-HD\\vp9\\12\\RockWave_1920x1080_30fps_vp9.webm':\n  Metadata:\n    major_brand     : isom\n    minor_version   : 512\n    compatible_brands: isomiso2avc1mp41\n    encoder         : Lavf62.3.100\n  Stream #0:0(und): Video: vp9, yuv420p(tv, progressive), 1920x1080, q=2-31, 12000 kb/s, 30 fps, 1k tbn (default)\n    Metadata:\n      encoder         : Lavc62.11.100 libvpx-vp9\n      handler_name    : VideoHandler\n      vendor_id       : [0][0][0][0]\n    Side data:\n      cpb: bitrate max/min/avg: 0/0/0 buffer size: 12000000 vbv_delay: N/A\nframe=    0 fps=0.0 q=0.0 size=       0KiB time=N/A bitrate=N/A speed=N/A elapsed=0:00:00.50    \nframe=    2 fps=1.6 q=23.0 size=       1KiB time=00:00:00.06 bitrate=  76.1kbits/s speed=0.0541x elapsed=0:00:01.23    \nframe=    5 fps=2.8 q=54.0 size=       1KiB time=00:00:00.16 bitrate=  30.4kbits/s speed=0.0937x elapsed=0:00:01.77    \nframe=    7 fps=3.0 q=55.0 size=       1KiB time=00:00:00.23 bitrate=  21.7kbits/s speed=0.101x elapsed=0:00:02.32    \nframe=   10 fps=3.5 q=56.0 size=       1KiB time=00:00:00.33 bitrate=  15.2kbits/s speed=0.117x elapsed=0:00:02.85    \nframe=   12 fps=3.5 q=56.0 size=       1KiB time=00:00:00.40 bitrate=  12.7kbits/s speed=0.118x elapsed=0:00:03.38    \nframe=   15 fps=3.8 q=56.0 size=       1KiB time=00:00:00.50 bitrate=  10.1kbits/s speed=0.128x elapsed=0:00:03.90    \nframe=   17 fps=3.8 q=56.0 size=       1KiB time=00:00:00.56 bitrate=   9.0kbits/s speed=0.128x elapsed=0:00:04.42    \nframe=   19 fps=3.8 q=56.0 size=       1KiB time=00:00:00.63 bitrate=   8.0kbits/s speed=0.128x elapsed=0:00:04.96    \nframe=   21 fps=3.8 q=32.0 size=       1KiB time=00:00:00.70 bitrate=   7.2kbits/s speed=0.127x elapsed=0:00:05.49    \nframe=   24 fps=4.0 q=56.0 size=       1KiB time=00:00:00.80 bitrate=   6.3kbits/s speed=0.133x elapsed=0:00:06.00    \nframe=   26 fps=4.0 q=56.0 size=       1KiB time=00:00:00.86 bitrate=   5.9kbits/s speed=0.132x elapsed=0:00:06.54    \nframe=   29 fps=4.1 q=56.0 size=       1KiB time=00:00:00.96 bitrate=   5.2kbits/s speed=0.136x elapsed=0:00:07.08    \nframe=   31 fps=4.1 q=31.0 size=       1KiB time=00:00:01.03 bitrate=   4.9kbits/s speed=0.136x elapsed=0:00:07.61    \nframe=   33 fps=4.0 q=55.0 size=       1KiB time=00:00:01.10 bitrate=   4.6kbits/s speed=0.135x elapsed=0:00:08.16    \nframe=   36 fps=4.1 q=56.0 size=       1KiB time=00:00:01.20 bitrate=   4.2kbits/s speed=0.138x elapsed=0:00:08.69    \nframe=   38 fps=4.1 q=56.0 size=       1KiB time=00:00:01.26 bitrate=   4.0kbits/s speed=0.137x elapsed=0:00:09.23    \nframe=   40 fps=4.1 q=56.0 size=       1KiB time=00:00:01.33 bitrate=   3.8kbits/s speed=0.137x elapsed=0:00:09.74    \nframe=   43 fps=4.2 q=56.0 size=       1KiB time=00:00:01.43 bitrate=   3.5kbits/s speed=0.14x elapsed=0:00:10.25    \nframe=   45 fps=4.2 q=56.0 size=       1KiB time=00:00:01.50 bitrate=   3.4kbits/s speed=0.139x elapsed=0:00:10.78    \nframe=   48 fps=4.2 q=56.0 size=       1KiB time=00:00:01.60 bitrate=   3.2kbits/s speed=0.141x elapsed=0:00:11.31    \nframe=   50 fps=4.2 q=56.0 size=       1KiB time=00:00:01.66 bitrate=   3.0kbits/s speed=0.141x elapsed=0:00:11.85    \nframe=   52 fps=4.2 q=56.0 size=       1KiB time=00:00:01.73 bitrate=   2.9kbits/s speed=0.14x elapsed=0:00:12.38    \nframe=   55 fps=4.3 q=56.0 size=       1KiB time=00:00:01.83 bitrate=   2.8kbits/s speed=0.142x elapsed=0:00:12.89    \nframe=   57 fps=4.2 q=56.0 size=       1KiB time=00:00:01.90 bitrate=   2.7kbits/s speed=0.142x elapsed=0:00:13.42    \nframe=   60 fps=4.3 q=56.0 size=       1KiB time=00:00:02.00 bitrate=   2.5kbits/s speed=0.143x elapsed=0:00:13.94    \nframe=   62 fps=4.3 q=55.0 size=       1KiB time=00:00:02.06 bitrate=   2.5kbits/s speed=0.143x elapsed=0:00:14.47    \nframe=   65 fps=4.3 q=54.0 size=       1KiB time=00:00:02.16 bitrate=   2.3kbits/s speed=0.145x elapsed=0:00:14.99    \nframe=   67 fps=4.3 q=54.0 size=       1KiB time=00:00:02.23 bitrate=   2.3kbits/s speed=0.144x elapsed=0:00:15.53    \nframe=   69 fps=4.3 q=54.0 size=       1KiB time=00:00:02.30 bitrate=   2.2kbits/s speed=0.143x elapsed=0:00:16.05    \nframe=   72 fps=4.3 q=53.0 size=       1KiB time=00:00:02.40 bitrate=   2.1kbits/s speed=0.145x elapsed=0:00:16.57    \nframe=   74 fps=4.3 q=52.0 size=       1KiB time=00:00:02.46 bitrate=   2.1kbits/s speed=0.144x elapsed=0:00:17.09    \nframe=   77 fps=4.4 q=52.0 size=       1KiB time=00:00:02.56 bitrate=   2.0kbits/s speed=0.146x elapsed=0:00:17.62    \nframe=   79 fps=4.3 q=52.0 size=       1KiB time=00:00:02.63 bitrate=   1.9kbits/s speed=0.145x elapsed=0:00:18.17    \nframe=   81 fps=4.3 q=36.0 size=       1KiB time=00:00:02.70 bitrate=   1.9kbits/s speed=0.145x elapsed=0:00:18.67    \nframe=   84 fps=4.4 q=51.0 size=       1KiB time=00:00:02.80 bitrate=   1.8kbits/s speed=0.146x elapsed=0:00:19.20    \nframe=   87 fps=4.4 q=51.0 size=       1KiB time=00:00:02.90 bitrate=   1.7kbits/s speed=0.147x elapsed=0:00:19.77    \nframe=   89 fps=4.4 q=52.0 size=       1KiB time=00:00:02.96 bitrate=   1.7kbits/s speed=0.146x elapsed=0:00:20.30    \nframe=   91 fps=4.4 q=34.0 size=       1KiB time=00:00:03.03 bitrate=   1.7kbits/s speed=0.146x elapsed=0:00:20.82    \nframe=   94 fps=4.4 q=53.0 size=       1KiB time=00:00:03.13 bitrate=   1.6kbits/s speed=0.147x elapsed=0:00:21.34    \nframe=   97 fps=4.4 q=53.0 size=       1KiB time=00:00:03.23 bitrate=   1.6kbits/s speed=0.148x elapsed=0:00:21.87    \nframe=   99 fps=4.4 q=53.0 size=       1KiB time=00:00:03.30 bitrate=   1.5kbits/s speed=0.147x elapsed=0:00:22.40    \nframe=  101 fps=4.4 q=34.0 size=       1KiB time=00:00:03.36 bitrate=   1.5kbits/s speed=0.147x elapsed=0:00:22.91    \nframe=  104 fps=4.4 q=54.0 size=       1KiB time=00:00:03.46 bitrate=   1.5kbits/s speed=0.148x elapsed=0:00:23.43    \nframe=  107 fps=4.5 q=54.0 size=       1KiB time=00:00:03.56 bitrate=   1.4kbits/s speed=0.149x elapsed=0:00:23.94    \nframe=  109 fps=4.4 q=54.0 size=       1KiB time=00:00:03.63 bitrate=   1.4kbits/s speed=0.148x elapsed=0:00:24.49    \nframe=  112 fps=4.5 q=54.0 size=       1KiB time=00:00:03.73 bitrate=   1.4kbits/s speed=0.149x elapsed=0:00:25.01    \nframe=  115 fps=4.5 q=54.0 size=       1KiB time=00:00:03.83 bitrate=   1.3kbits/s speed=0.15x elapsed=0:00:25.53    \nframe=  117 fps=4.5 q=54.0 size=       1KiB time=00:00:03.90 bitrate=   1.3kbits/s speed=0.15x elapsed=0:00:26.06    \nframe=  120 fps=4.5 q=54.0 size=    5120KiB time=00:00:04.00 bitrate=10485.8kbits/s speed=0.15x elapsed=0:00:26.60    \nframe=  122 fps=4.5 q=55.0 size=    5120KiB time=00:00:04.06 bitrate=10313.9kbits/s speed=0.15x elapsed=0:00:27.13    \nframe=  125 fps=4.5 q=55.0 size=    5120KiB time=00:00:04.16 bitrate=10066.3kbits/s speed=0.151x elapsed=0:00:27.64    \nframe=  126 fps=4.5 q=55.0 size=    5120KiB time=00:00:04.20 bitrate=9986.4kbits/s speed=0.149x elapsed=0:00:28.19    \nframe=  126 fps=4.4 q=55.0 size=    5120KiB time=00:00:04.20 bitrate=9986.4kbits/s speed=0.146x elapsed=0:00:28.70    \nframe=  126 fps=4.3 q=55.0 size=    5120KiB time=00:00:04.20 bitrate=9986.4kbits/s speed=0.144x elapsed=0:00:29.23    \nframe=  126 fps=4.2 q=55.0 size=    5120KiB time=00:00:04.20 bitrate=9986.4kbits/s speed=0.141x elapsed=0:00:29.75    \nframe=  126 fps=4.2 q=55.0 size=    5120KiB time=00:00:04.20 bitrate=9986.4kbits/s speed=0.139x elapsed=0:00:30.27    \nframe=  126 fps=4.1 q=55.0 size=    5120KiB time=00:00:04.20 bitrate=9986.4kbits/s speed=0.136x elapsed=0:00:30.82    \nframe=  126 fps=4.0 q=55.0 size=    5120KiB time=00:00:04.20 bitrate=9986.4kbits/s speed=0.134x elapsed=0:00:31.35    \nframe=  126 fps=4.0 q=55.0 size=    5120KiB time=00:00:04.20 bitrate=9986.4kbits/s speed=0.132x elapsed=0:00:31.89    \nframe=  126 fps=3.9 q=55.0 size=    5120KiB time=00:00:04.20 bitrate=9986.4kbits/s speed=0.13x elapsed=0:00:32.39    \n[out#0/webm @ 0000015684689380] video:6411KiB audio:0KiB subtitle:0KiB other streams:0KiB global headers:0KiB muxing overhead: 0.029063%\nframe=  150 fps=4.6 q=53.0 Lsize=    6413KiB time=00:00:05.00 bitrate=10507.3kbits/s speed=0.154x elapsed=0:00:32.53    \n",
  "seconds": 32.873010873794556,
  "probe_out": {}
}